<svg xmlns="http://www.w3.org/2000/svg" viewBox="0 0 64 64"><path d="M50.8 20.6c-.5-4.2-4.2-7.5-8.6-8.1-.7-.1-3.5-.5-10-.5s-8 .4-8.7.5c-4.2.6-8.1 3.6-9 7.8q-.6 3.3-.5 6.6l.5 9q.3 3 1 6c.9 3.7 4.5 6.7 8 8q6.6 2.1 13.1.2 1.6-.4 3-1.2v-3h-.1q-3.8.8-7.7.8c-4.4 0-5.6-2-6-3l-.5-2.4h.1q3.8 1 7.5 1l1.9-.1q3.9 0 7.7-.7h.2c4-.8 7.8-3.1 8.1-9.1v-2.8c0-.8.4-5.8 0-9m-6 15h-4.2V25.5q0-3.2-2.7-3.2-3 0-3 3.8v5.5h-4.2v-5.5q0-3.9-3-3.8-2.7 0-2.7 3.2v10h-4.2V25.3q0-3.2 1.7-5.1a6 6 0 0 1 4.4-1.9q3.3 0 4.9 2.4l1 1.8 1-1.8a5 5 0 0 1 4.8-2.4 6 6 0 0 1 4.5 1.9q1.7 2 1.7 5z"/></svg>
